<svg width="1212" height="902" viewBox="0 0 1212 902" fill="none" xmlns="http://www.w3.org/2000/svg">
<path d="M976.877 901.023L1206.43 799.893C1208.24 799.096 1209.41 797.308 1209.41 795.331L1211.46 5.01294C1211.46 2.24647 1209.22 0 1206.46 0H238.299C237.587 0 236.883 0.152186 236.234 0.446352L3.56458 105.958C1.77747 106.768 0.629517 108.549 0.629517 110.511V896.447C0.629517 899.208 2.86816 901.447 5.62952 901.447H974.861C975.555 901.447 976.242 901.302 976.877 901.023Z" fill="#D6A892"/>
<rect x="979.284" y="105" width="975.284" height="794.158" rx="5" transform="scale(-1 1)" fill="#F6DBCD"/>
<rect x="1211.47" y="3.31836" width="975.284" height="794.158" rx="5" transform="scale(-1 1)" fill="#0A2529"/>
</svg>
