<svg width="1220" height="1500" viewBox="0 0 1220 1500" fill="none" xmlns="http://www.w3.org/2000/svg">
<path d="M248.155 1.98744L1.81624 328.298C1.16188 329.165 0.807541 330.221 0.80679 331.307L0.00345899 1493.33C0.00154903 1496.09 2.24071 1498.34 5.00348 1498.34H968.685C970.24 1498.34 971.707 1497.61 972.653 1496.38L1218.97 1175.04C1219.64 1174.17 1220 1173.1 1220 1172V5C1220 2.23858 1217.76 0 1215 0H252.146C250.578 0 249.1 0.7358 248.155 1.98744Z" fill="#D6A892"/>
<rect y="329.634" width="969.536" height="1165.37" rx="5" fill="#F6DBCD"/>
<path d="M249.055 1167.83L2.40898 1495.14C1.41681 1496.46 2.35418 1498.34 4.00279 1498.34L969.34 1500C969.972 1500 970.567 1499.7 970.945 1499.2L1216.8 1170.23C1217.79 1168.92 1216.85 1167.04 1215.2 1167.04H250.653C250.025 1167.04 249.433 1167.33 249.055 1167.83Z" fill="#D6A892"/>
<rect x="248.848" y="3.32959" width="969.536" height="1165.37" rx="5" fill="#0A2529"/>
</svg>
