<svg width="1220" height="5000" viewBox="0 0 1220 5000" fill="none" xmlns="http://www.w3.org/2000/svg">
<path d="M248.773 3.89561L0.931329 1098.23C0.84933 1098.6 0.807908 1098.97 0.807831 1099.34L0.0010372 4989.45C0.000464403 4992.21 2.23922 4994.45 5.00105 4994.45H967.172C969.501 4994.45 971.522 4992.84 972.044 4990.57L1219.87 3912.87C1219.96 3912.5 1220 3912.13 1220 3911.75V5C1220 2.23858 1217.76 0 1215 0H253.65C251.314 0 249.289 1.6174 248.773 3.89561Z" fill="#D6A892"/>
<rect y="1098.78" width="969.536" height="3884.57" rx="5" fill="#F6DBCD"/>
<path d="M249.303 3891.68L0.548615 4992.02C0.266851 4993.27 1.21013 4994.46 2.48792 4994.46L968.734 4999.99C969.674 5000 970.491 4999.35 970.697 4998.43L1218.65 3892.56C1218.93 3891.31 1217.97 3890.12 1216.69 3890.12H251.254C250.319 3890.12 249.509 3890.77 249.303 3891.68Z" fill="#D6A892"/>
<rect x="248.848" y="11.0986" width="969.536" height="3884.57" rx="5" fill="#0A2529"/>
</svg>
