<svg width="1220" height="4000" viewBox="0 0 1220 4000" fill="none" xmlns="http://www.w3.org/2000/svg">
<path d="M248.626 3.63802L0.996834 878.356C0.871509 878.799 0.807887 879.257 0.807767 879.717L0.00129656 3990.56C0.000580545 3993.32 2.23935 3995.56 5.00128 3995.56H967.387C969.617 3995.56 971.577 3994.08 972.193 3991.94L1219.81 3130.53C1219.93 3130.08 1220 3129.62 1220 3129.15V5C1220 2.23858 1217.76 0 1215 0H253.437C251.2 0 249.235 1.48571 248.626 3.63802Z" fill="#0A2529"/>
<rect y="879.023" width="969.536" height="3107.66" rx="5" fill="#4F767B"/>
<path d="M249.244 3113.55L0.71546 3993.03C0.355809 3994.3 1.30841 3995.57 2.63095 3995.57L968.821 3999.99C969.721 4000 970.513 3999.4 970.756 3998.53L1218.48 3114.64C1218.84 3113.36 1217.88 3112.1 1216.55 3112.1H251.169C250.274 3112.1 249.488 3112.69 249.244 3113.55Z" fill="#0A2529"/>
<rect x="248.848" y="8.87891" width="969.536" height="3107.66" rx="5" fill="#F6DBCD"/>
</svg>
