<svg width="1220" height="2500" viewBox="0 0 1220 2500" fill="none" xmlns="http://www.w3.org/2000/svg">
<path d="M248.325 2.937L1.25294 548.407C0.95965 549.055 0.807795 549.757 0.8075 550.468L0.00207482 2492.22C0.000929068 2494.99 2.23986 2497.23 5.00209 2497.23H967.948C969.901 2497.23 971.675 2496.09 972.491 2494.31L1219.54 1957.15C1219.84 1956.5 1220 1955.79 1220 1955.06V5C1220 2.23858 1217.76 0 1215 0H252.88C250.917 0 249.135 1.14878 248.325 2.937Z" fill="#F6DBCD"/>
<rect y="549.39" width="969.536" height="1942.29" rx="5" fill="#D6A892"/>
<path d="M249.124 1946.24L1.27283 2494.41C0.675296 2495.73 1.63911 2497.23 3.08948 2497.23L969.045 2500C969.835 2500 970.553 2499.54 970.876 2498.81L1217.93 1947.88C1218.52 1946.56 1217.55 1945.06 1216.1 1945.06H250.946C250.161 1945.06 249.448 1945.52 249.124 1946.24Z" fill="#F6DBCD"/>
<rect x="248.848" y="5.54932" width="969.536" height="1942.29" rx="5" fill="#4F767B"/>
</svg>
