<svg width="1220" height="6000" viewBox="0 0 1220 6000" fill="none" xmlns="http://www.w3.org/2000/svg">
<path d="M248.887 4.07273L0.894604 1318.08C0.836958 1318.38 0.80792 1318.69 0.807866 1319L0.0008643 5988.34C0.000386984 5991.1 2.23911 5993.34 5.00088 5993.34H967.02C969.418 5993.34 971.479 5991.64 971.93 5989.28L1219.91 4695.25C1219.97 4694.94 1220 4694.62 1220 4694.31V5C1220 2.23858 1217.76 0 1215 0H253.8C251.396 0 249.333 1.7106 248.887 4.07273Z" fill="#F6DBCD"/>
<rect y="1318.54" width="969.536" height="4661.49" rx="5" fill="#D6A892"/>
<path d="M249.349 4669.78L0.443434 5990.99C0.212497 5992.21 1.14778 5993.35 2.39515 5993.36L968.672 5999.99C969.64 6000 970.474 5999.31 970.651 5998.36L1218.75 4670.51C1218.98 4669.28 1218.04 4668.15 1216.78 4668.15H251.314C250.352 4668.15 249.527 4668.83 249.349 4669.78Z" fill="#F6DBCD"/>
<rect x="248.848" y="13.3184" width="969.536" height="4661.49" rx="5" fill="#4F767B"/>
</svg>
