<svg width="1220" height="3500" viewBox="0 0 1220 3500" fill="none" xmlns="http://www.w3.org/2000/svg">
<path d="M248.536 3.46086L1.0505 768.396C0.889791 768.892 0.807868 769.411 0.807714 769.933L0.00148184 3491.11C0.000663513 3493.88 2.23945 3496.12 5.00145 3496.12H967.532C969.692 3496.12 971.608 3494.73 972.282 3492.68L1219.75 2739.38C1219.92 2738.88 1220 2738.35 1220 2737.82V5C1220 2.23858 1217.76 0 1215 0H253.293C251.125 0 249.203 1.39772 248.536 3.46086Z" fill="#D6A892"/>
<rect y="769.146" width="969.536" height="2719.2" rx="5" fill="#F6DBCD"/>
<path d="M249.208 2724.47L0.840879 3493.51C0.424793 3494.8 1.38216 3496.12 2.73604 3496.13L968.879 3499.99C969.751 3500 970.525 3499.44 970.791 3498.6L1218.36 2725.7C1218.77 2724.4 1217.81 2723.09 1216.45 2723.09H251.111C250.244 2723.09 249.475 2723.65 249.208 2724.47Z" fill="#D6A892"/>
<rect x="248.848" y="7.76904" width="969.536" height="2719.2" rx="5" fill="#0A2529"/>
</svg>
