<svg width="1220" height="2000" viewBox="0 0 1220 2000" fill="none" xmlns="http://www.w3.org/2000/svg">
<path d="M248.219 2.53649L1.45627 438.367C1.03129 439.117 0.807712 439.965 0.807265 440.827L0.0025938 1992.78C0.0011615 1995.54 2.24012 1997.78 5.00255 1997.78H968.259C970.049 1997.78 971.702 1996.82 972.594 1995.27L1219.33 1566.08C1219.77 1565.33 1220 1564.47 1220 1563.59V5C1220 2.23858 1217.76 0 1215 0H252.57C250.769 0 249.107 0.96895 248.219 2.53649Z" fill="#D6A892"/>
<rect y="439.512" width="969.536" height="1553.83" rx="5" fill="#F6DBCD"/>
<path d="M249.081 1557.06L1.68209 1994.8C0.929571 1996.14 1.88927 1997.78 3.41869 1997.79L969.17 2000C969.895 2000 970.564 1999.61 970.919 1998.98L1217.52 1559.03C1218.27 1557.69 1217.31 1556.05 1215.78 1556.05H250.823C250.102 1556.05 249.436 1556.44 249.081 1557.06Z" fill="#D6A892"/>
<rect x="248.848" y="4.43945" width="969.536" height="1553.83" rx="5" fill="#0A2529"/>
</svg>
