<svg width="1220" height="850" viewBox="0 0 1220 850" fill="none" xmlns="http://www.w3.org/2000/svg">
<path d="M248.322 1.00121L2.80329 185.295C1.54692 186.238 0.80682 187.716 0.804903 189.287L0.00610733 844.05C0.00273555 846.814 2.24228 849.057 5.00608 849.057H969.505C970.575 849.057 971.617 848.713 972.477 848.077L1217.97 666.593C1219.25 665.651 1220 664.159 1220 662.573V5C1220 2.23858 1217.76 0 1215 0H251.323C250.241 0 249.188 0.351336 248.322 1.00121Z" fill="#F6DBCD"/>
<rect y="186.792" width="969.536" height="660.377" rx="5" fill="#D6A892"/>
<path d="M249.122 661.722L4.77762 845.464C3.24327 846.618 4.05793 849.061 5.97769 849.062L969.671 849.999C970.108 850 970.533 849.857 970.881 849.593L1214.45 664.914C1215.98 663.756 1215.16 661.321 1213.24 661.321H250.324C249.89 661.321 249.468 661.462 249.122 661.722Z" fill="#F6DBCD"/>
<rect x="248.848" y="1.88678" width="969.536" height="660.377" rx="5" fill="#4F767B"/>
</svg>

