<svg width="1220" height="3000" viewBox="0 0 1220 3000" fill="none" xmlns="http://www.w3.org/2000/svg">
<path d="M248.435 3.23429L1.12978 658.415C0.916978 658.979 0.80784 659.576 0.807632 660.179L0.0017289 2991.67C0.000774151 2994.43 2.23959 2996.67 5.00169 2996.67H967.714C969.785 2996.67 971.642 2995.39 972.383 2993.46L1219.67 2348.26C1219.89 2347.68 1220 2347.08 1220 2346.47V5C1220 2.23858 1217.76 0 1215 0H253.113C251.032 0 249.169 1.28804 248.435 3.23429Z" fill="#F6DBCD"/>
<rect y="659.268" width="969.536" height="2330.74" rx="5" fill="#D6A892"/>
<path d="M249.168 2335.37L1.01554 2993.98C0.52374 2995.28 1.48541 2996.68 2.88023 2996.68L968.952 3000C969.789 3000 970.539 2999.48 970.832 2998.7L1218.18 2336.77C1218.67 2335.47 1217.7 2334.07 1216.31 2334.07H251.039C250.207 2334.07 249.461 2334.59 249.168 2335.37Z" fill="#F6DBCD"/>
<rect x="248.848" y="6.65918" width="969.536" height="2330.74" rx="5" fill="#4F767B"/>
</svg>
