<svg width="1220" height="1000" viewBox="0 0 1220 1000" fill="none" xmlns="http://www.w3.org/2000/svg">
<path d="M248.238 1.2522L2.49594 218.265C1.42254 219.213 0.807097 220.576 0.805612 222.008L0.00519028 993.885C0.00232464 996.648 2.24177 998.89 5.00522 998.89H969.282C970.488 998.89 971.654 998.454 972.563 997.663L1218.28 783.959C1219.37 783.009 1220 781.633 1220 780.186V5C1220 2.23858 1217.76 0 1215 0H251.547C250.328 0 249.151 0.445318 248.238 1.2522Z" fill="#0A2529"/>
<rect y="219.756" width="969.536" height="776.915" rx="5" fill="#4F767B"/>
<path d="M249.088 778.526L3.94709 995.398C2.56881 996.618 3.42977 998.894 5.26999 998.896L969.581 999.999C970.072 1000 970.547 999.819 970.914 999.492L1215.28 781.517C1216.65 780.294 1215.78 778.024 1213.95 778.024H250.413C249.925 778.024 249.454 778.203 249.088 778.526Z" fill="#0A2529"/>
<rect x="248.848" y="2.21973" width="969.536" height="776.915" rx="5" fill="#F6DBCD"/>
</svg>
