<svg width="867" height="271" viewBox="0 0 867 271" fill="none" xmlns="http://www.w3.org/2000/svg">
<path d="M2.67755 50.9356L97.7313 1.03138C98.4473 0.655471 99.2438 0.45884 100.052 0.458357L860.999 0.00299387C863.761 0.00134069 866.002 2.2404 866.002 5.00299L866.002 213.416C866.002 215.295 864.948 217.016 863.273 217.87L764.002 268.502C763.299 268.861 762.52 269.048 761.73 269.048L5.0017 269.048C2.24028 269.048 0.00169732 266.81 0.00169744 264.048L0.00170656 55.3626C0.00170665 53.5043 1.03229 51.7994 2.67755 50.9356Z" fill="#F6DBCD"/>
<rect x="762.934" y="52.3375" width="216.708" height="762.93" rx="5" transform="rotate(90 762.934 52.3375)" fill="#D6A892"/>
<path fill-rule="evenodd" clip-rule="evenodd" d="M0.000121954 267.353L102.374 213.542L103.77 216.198L3.22461 269.047L0.00244129 269.047L0.000121954 269.043L0.000121954 267.353ZM0.485107 269.966L1.47766 269.966L0.699951 270.375L0.485107 269.966Z" fill="#F6DBCD"/>
<rect x="862.809" width="216.708" height="762.93" rx="5" transform="rotate(90 862.809 0)" fill="#0A2529"/>
</svg>
