<svg width="1082" height="705" viewBox="0 0 1082 705" fill="none" xmlns="http://www.w3.org/2000/svg">
<path d="M216.843 704.217L18.2826 625.419C16.3825 624.665 15.1328 622.83 15.1269 620.786L13.3582 5.01436C13.3502 2.24734 15.5911 0 18.3581 0H857.702C858.351 0 858.993 0.126103 859.593 0.37129L1060.86 82.5866C1062.74 83.3547 1063.97 85.1841 1063.97 87.2154V699.569C1063.97 702.331 1061.73 704.569 1058.97 704.569H218.687C218.056 704.569 217.43 704.45 216.843 704.217Z" fill="#D6A892"/>
<path d="M1066.31 699.179L852.934 620.032C852.602 619.909 852.25 619.846 851.896 619.845L15.8395 618.149C12.526 618.143 11.6492 622.721 14.7307 623.939L218.2 704.358C218.551 704.496 218.924 704.567 219.301 704.568L1065.26 704.991C1068.61 704.993 1069.44 700.342 1066.31 699.179Z" fill="#F6DBCD"/>
<rect x="16.3438" y="2.5957" width="846.237" height="620.712" rx="5" fill="#0A2529"/>
</svg>
