<svg width="1082" height="900" viewBox="0 0 1082 900" fill="none" xmlns="http://www.w3.org/2000/svg">
<path d="M216.666 898.911L17.8701 798.199C16.1927 797.349 15.134 795.63 15.1297 793.75L13.355 5.01125C13.3488 2.24544 15.5892 0 18.3551 0H857.459C858.264 0 859.057 0.194371 859.771 0.566598L1061.28 105.649C1062.93 106.511 1063.97 108.22 1063.97 110.083V894.451C1063.97 897.212 1061.73 899.451 1058.97 899.451H218.926C218.141 899.451 217.367 899.266 216.666 898.911Z" fill="#D6A892"/>
<path d="M1069.92 894.28L853.037 791.58C852.638 791.391 852.203 791.293 851.761 791.292L12.6784 789.119C9.51446 789.111 8.49449 793.372 11.3193 794.797L218.094 899.127C218.513 899.338 218.975 899.448 219.444 899.449L1068.63 899.991C1071.84 899.993 1072.81 895.65 1069.92 894.28Z" fill="#F6DBCD"/>
<rect x="16.3438" y="3.31372" width="846.237" height="792.399" rx="5" fill="#0A2529"/>
</svg>
