<svg width="1082" height="1200" viewBox="0 0 1082 1200" fill="none" xmlns="http://www.w3.org/2000/svg">
<path d="M216.463 1198.41L17.3334 1063.9C15.9595 1062.97 15.1349 1061.43 15.1322 1059.77L13.3522 5.00844C13.3475 2.24372 15.5875 0 18.3522 0H857.117C858.137 0 859.133 0.312243 859.971 0.894802L1061.82 141.243C1063.17 142.178 1063.97 143.711 1063.97 145.348V1194.27C1063.97 1197.03 1061.73 1199.27 1058.97 1199.27H219.262C218.264 1199.27 217.29 1198.97 216.463 1198.41Z" fill="#D6A892"/>
<path d="M1073.22 1194.45L853.161 1055.52C852.684 1055.22 852.133 1055.06 851.569 1055.05L9.89504 1052.15C6.92798 1052.14 5.74831 1055.98 8.21014 1057.64L217.973 1198.75C218.467 1199.09 219.049 1199.26 219.645 1199.26L1071.61 1199.99C1074.62 1199.99 1075.76 1196.06 1073.22 1194.45Z" fill="#F6DBCD"/>
<rect x="16.3438" y="4.41821" width="846.237" height="1056.53" rx="5" fill="#0A2529"/>
</svg>
