<svg width="65" height="64" viewBox="0 0 65 64" fill="none" xmlns="http://www.w3.org/2000/svg">
<path d="M62.8508 19.963L33.5704 0.462895C32.571 -0.151482 31.5044 -0.157107 30.4959 0.462895L1.21551 19.963C0.464732 20.4628 0 21.3558 0 22.2486V41.7485C0 42.6414 0.464732 43.5343 1.21564 44.0343L30.496 63.5371C31.4954 64.1515 32.562 64.1571 33.5705 63.5371L62.8509 44.0343C63.6017 43.5344 64.0665 42.6414 64.0665 41.7485V22.2486C64.0664 21.3558 63.6017 20.4628 62.8508 19.963V19.963ZM34.7861 7.89129L56.3442 22.2486L46.7271 28.6772L34.7861 20.7128V7.89129ZM29.2803 7.89129V20.7128L17.3393 28.6772L7.72225 22.2486L29.2803 7.89129ZM5.50571 27.3915L12.4057 31.9986L5.50571 36.6058V27.3915ZM29.2803 56.106L7.72225 41.7487L17.3393 35.32L29.2803 43.2844V56.106ZM32.0332 38.4986L22.3087 31.9986L32.0332 25.4986L41.7577 31.9986L32.0332 38.4986ZM34.7861 56.106V43.2844L46.7271 35.32L56.3442 41.7487L34.7861 56.106ZM58.5607 36.6058L51.6607 31.9986L58.5607 27.3915V36.6058Z" fill="#D6A892"/>
</svg>
