<svg width="53" height="31" viewBox="0 0 53 31" fill="none" xmlns="http://www.w3.org/2000/svg">
<path d="M52.9998 30.1033C51.1013 30.5875 49.9272 30.1242 48.8739 28.538C46.5091 24.9857 43.8987 21.5963 41.3798 18.1442C41.0551 17.6976 40.7178 17.2593 40.2973 16.7041C37.3163 20.7364 34.3395 24.5767 31.5459 28.5714C30.5467 29.999 29.4975 30.6209 27.6323 30.1158L38.8401 15.0345L28.4067 1.41405C30.2011 1.06342 31.4418 1.24291 32.5409 2.85415C34.9682 6.41056 37.6453 9.79584 40.314 13.3773C42.9994 9.80836 45.6431 6.41891 48.1411 2.89589C49.1445 1.46831 50.2228 0.925667 52.0256 1.45162C50.66 3.26739 49.3235 5.05395 47.9788 6.82798C46.1635 9.2198 44.3816 11.6408 42.4998 13.9826C41.8294 14.8174 41.9377 15.36 42.5372 16.149C46.0178 20.7364 49.4568 25.3698 52.9998 30.1033Z" fill="#F6DBCD"/>
<path d="M0.816689 14.784C1.11645 13.2771 1.31629 11.741 1.73263 10.2634C4.23066 1.31806 14.4726 -2.40115 21.5087 3.14218C25.6304 6.39388 26.6546 10.9772 26.4506 16.1448H3.21896C2.86924 25.4157 9.52648 31.0133 18.0114 28.1582C20.9883 27.1563 22.741 24.8188 23.6195 21.8969C24.065 20.4317 24.8019 20.2021 26.1758 20.6196C25.4722 24.2762 23.8776 27.3317 20.5469 29.2434C15.5509 32.1069 8.41902 31.1803 4.66782 27.2023C2.4529 24.8647 1.51197 21.9553 1.09564 18.8121C1.03319 18.3112 0.90412 17.8187 0.804199 17.3219C0.812526 16.476 0.816689 15.63 0.816689 14.784ZM3.26059 14.1621H24.2565C24.1191 7.45831 19.9557 2.69554 14.2644 2.6538C8.01934 2.60371 3.53121 7.25377 3.26059 14.1621Z" fill="#F6DBCD"/>
</svg>
