<svg width="65" height="64" viewBox="0 0 65 64" fill="none" xmlns="http://www.w3.org/2000/svg">
<path d="M57.202 0H6.86423C3.07461 0 0 3.07143 0 6.85714V57.1429C0 60.9286 3.07461 64 6.86423 64H57.202C60.9916 64 64.0662 60.9286 64.0662 57.1429V6.85714C64.0662 3.07143 60.9916 0 57.202 0ZM39.6553 54.8143C38.454 55.0286 38.0107 54.2857 38.0107 53.6714C38.0107 52.9 38.0393 48.9571 38.0393 45.7714C38.0393 43.5429 37.2957 42.1286 36.4233 41.3857C41.7145 40.8 47.2917 40.0714 47.2917 30.9429C47.2917 28.3429 46.3622 27.0429 44.8463 25.3714C45.0894 24.7571 45.9046 22.2286 44.6032 18.9429C42.6155 18.3286 38.0679 21.5 38.0679 21.5C36.1802 20.9714 34.1353 20.7 32.1189 20.7C30.1025 20.7 28.0576 20.9714 26.1699 21.5C26.1699 21.5 21.6223 18.3286 19.6346 18.9429C18.3332 22.2143 19.1341 24.7429 19.3915 25.3714C17.8756 27.0429 17.1606 28.3429 17.1606 30.9429C17.1606 40.0286 22.4947 40.8 27.7859 41.3857C27.0994 42 26.4845 43.0571 26.27 44.5714C24.9115 45.1857 21.4364 46.2429 19.3629 42.5857C18.0615 40.3286 15.7162 40.1429 15.7162 40.1429C13.3996 40.1143 15.5589 41.6 15.5589 41.6C17.1034 42.3143 18.1902 45.0571 18.1902 45.0571C19.5774 49.3 26.2128 47.8714 26.2128 47.8714C26.2128 49.8571 26.2414 53.0857 26.2414 53.6714C26.2414 54.2857 25.8124 55.0286 24.5968 54.8143C15.1585 51.6571 8.55169 42.6857 8.55169 32.2C8.55169 19.0857 18.5906 9.12857 31.7185 9.12857C44.8463 9.12857 55.4859 19.0857 55.4859 32.2C55.5002 42.6857 49.0936 51.6714 39.6553 54.8143ZM25.6265 46.0857C25.3548 46.1429 25.0974 46.0286 25.0688 45.8429C25.0402 45.6286 25.2261 45.4429 25.4978 45.3857C25.7695 45.3571 26.0269 45.4714 26.0555 45.6571C26.0984 45.8429 25.9125 46.0286 25.6265 46.0857ZM24.2679 45.9571C24.2679 46.1429 24.0534 46.3 23.7674 46.3C23.4528 46.3286 23.2383 46.1714 23.2383 45.9571C23.2383 45.7714 23.4528 45.6143 23.7388 45.6143C24.0105 45.5857 24.2679 45.7429 24.2679 45.9571ZM22.3088 45.8C22.2516 45.9857 21.9656 46.0714 21.7224 45.9857C21.4507 45.9286 21.2648 45.7143 21.322 45.5286C21.3792 45.3429 21.6652 45.2571 21.9083 45.3143C22.1944 45.4 22.3803 45.6143 22.3088 45.8ZM20.5498 45.0286C20.4211 45.1857 20.1494 45.1571 19.9349 44.9429C19.7204 44.7571 19.6632 44.4857 19.8062 44.3571C19.9349 44.2 20.2066 44.2286 20.4211 44.4429C20.607 44.6286 20.6785 44.9143 20.5498 45.0286ZM19.2485 43.7286C19.1198 43.8143 18.8766 43.7286 18.7193 43.5143C18.562 43.3 18.562 43.0571 18.7193 42.9571C18.8766 42.8286 19.1198 42.9286 19.2485 43.1429C19.4058 43.3571 19.4058 43.6143 19.2485 43.7286V43.7286ZM18.3189 42.3429C18.1902 42.4714 17.9757 42.4 17.8184 42.2571C17.6611 42.0714 17.6325 41.8571 17.7612 41.7571C17.8899 41.6286 18.1044 41.7 18.2617 41.8429C18.419 42.0286 18.4476 42.2429 18.3189 42.3429ZM17.3608 41.2857C17.3036 41.4143 17.1177 41.4429 16.9604 41.3429C16.7745 41.2571 16.6887 41.1 16.7459 40.9714C16.8031 40.8857 16.9604 40.8429 17.1463 40.9143C17.3322 41.0143 17.418 41.1714 17.3608 41.2857Z" fill="#D6A892"/>
</svg>
