<svg width="53" height="53" viewBox="0 0 53 53" fill="none" xmlns="http://www.w3.org/2000/svg">
<path d="M46.7791 0.310913H5.76796C2.68048 0.310913 0.175537 2.82236 0.175537 5.91787V47.0356C0.175537 50.1311 2.68048 52.6425 5.76796 52.6425H46.7791C49.8666 52.6425 52.3715 50.1311 52.3715 47.0356V5.91787C52.3715 2.82236 49.8666 0.310913 46.7791 0.310913ZM28.5804 41.1249C28.5804 46.2179 25.5978 48.5424 21.252 48.5424C17.3256 48.5424 15.0537 46.5099 13.8886 44.0452L17.8849 41.6272C18.6538 42.9939 19.3529 44.1503 21.0423 44.1503C22.6501 44.1503 23.6754 43.5195 23.6754 41.0548V24.3391H28.5804V41.1249V41.1249ZM40.1847 48.5424C35.6292 48.5424 32.6815 46.3697 31.2484 43.5195L35.2447 41.2067C36.2933 42.9238 37.6681 44.197 40.0798 44.197C42.1071 44.197 43.412 43.1808 43.412 41.7673C43.412 40.0853 42.0838 39.4895 39.8351 38.4966L38.6118 37.971C35.0699 36.4641 32.7281 34.5601 32.7281 30.5534C32.7281 26.8622 35.536 24.0587 39.9051 24.0587C43.0275 24.0587 45.2645 25.1451 46.8723 27.9953L43.0508 30.4483C42.2119 28.9414 41.3032 28.3457 39.8934 28.3457C38.4603 28.3457 37.5516 29.2568 37.5516 30.4483C37.5516 31.9201 38.4603 32.5159 40.5692 33.4387L41.7925 33.9643C45.9635 35.7516 48.3053 37.5855 48.3053 41.6973C48.3053 46.1127 44.8334 48.5424 40.1847 48.5424V48.5424Z" fill="#F6DBCD"/>
</svg>
