<svg width="65" height="64" viewBox="0 0 65 64" fill="none" xmlns="http://www.w3.org/2000/svg">
<path d="M59.49 0H4.56186C2.04497 0 0 2.07143 0 4.61429V59.3857C0 61.9286 2.04497 64 4.56186 64H59.49C62.0069 64 64.0662 61.9286 64.0662 59.3857V4.61429C64.0662 2.07143 62.0069 0 59.49 0ZM19.3629 54.8571H9.86734V24.3143H19.3772V54.8571H19.3629ZM14.6151 20.1429C11.5691 20.1429 9.10941 17.6714 9.10941 14.6429C9.10941 11.6143 11.5691 9.14286 14.6151 9.14286C17.6468 9.14286 20.1208 11.6143 20.1208 14.6429C20.1208 17.6857 17.6611 20.1429 14.6151 20.1429V20.1429ZM54.9568 54.8571H45.4613V40C45.4613 36.4571 45.3898 31.9 40.5276 31.9C35.5796 31.9 34.8217 35.7571 34.8217 39.7429V54.8571H25.3262V24.3143H34.4356V28.4857H34.5643C35.837 26.0857 38.9402 23.5571 43.5593 23.5571C53.1692 23.5571 54.9568 29.8857 54.9568 38.1143V54.8571V54.8571Z" fill="#D6A892"/>
</svg>
