<svg width="48" height="53" viewBox="0 0 48 53" fill="none" xmlns="http://www.w3.org/2000/svg">
<path d="M24.1774 4.54657C30.5714 4.54657 36.5739 5.85486 40.4886 6.9015C42.0545 7.29398 43.0984 8.60227 43.3594 10.303C43.6204 12.7888 43.7509 15.4054 43.7509 18.022C43.7509 38.4313 28.7445 46.6735 24.1774 48.6359C19.6102 46.5427 4.60391 38.3005 4.60391 18.022C4.60391 15.4054 4.7344 12.7888 4.99538 10.303C5.12587 8.60227 6.30027 7.29398 7.86615 6.9015C11.7809 5.85486 17.7834 4.54657 24.1774 4.54657ZM24.1774 0.621704C17.3919 0.621704 10.9979 1.92999 6.82223 3.10746C3.82097 3.89243 1.47215 6.63984 1.21117 9.77973C0.950189 12.0038 0.689209 14.8821 0.689209 18.022C0.689209 44.8419 24.1774 52.9533 24.1774 52.9533C24.1774 52.9533 47.6656 44.8419 47.6656 18.022C47.6656 14.7512 47.4046 12.0038 47.1436 9.77973C46.7521 6.50901 44.5338 3.89243 41.4021 3.10746C37.3569 1.92999 30.9629 0.621704 24.1774 0.621704Z" fill="#F6DBCD"/>
<path d="M25.4821 32.0206H22.8723V42.4869H25.4821V32.0206Z" fill="#F6DBCD"/>
<path d="M24.1773 8.47144C24.1773 8.47144 16.3479 15.0129 16.3479 25.4792C16.3479 32.2823 20.6541 36.5997 22.8724 38.5621L24.1773 34.6372L25.4822 38.5621C27.7005 36.5997 32.0067 32.2823 32.0067 25.4792C32.0067 15.0129 24.1773 8.47144 24.1773 8.47144Z" fill="#4F767B"/>
<path d="M24.1773 8.47144C24.1773 8.47144 16.3479 15.0129 16.3479 25.4792C16.3479 32.2823 20.6541 36.5997 22.8724 38.5621L24.1773 34.6372V8.47144Z" fill="#F6DBCD"/>
</svg>
