<svg width="47" height="53" viewBox="0 0 47 53" fill="none" xmlns="http://www.w3.org/2000/svg">
<path d="M23.3746 52.6425C22.6806 52.6425 21.9763 52.4556 21.3653 52.1025L14.9748 48.3123C14.0219 47.7723 14.488 47.5854 14.7987 47.4815C16.0726 47.035 16.3316 46.9415 17.6884 46.1627C17.8334 46.0796 18.0198 46.1108 18.1648 46.2043L23.0742 49.1222C23.2503 49.2261 23.4989 49.2261 23.6646 49.1222L42.7946 38.0526C42.9707 37.9487 43.0847 37.7411 43.0847 37.5334V15.3941C43.0847 15.176 42.9707 14.9787 42.7843 14.8645L23.6646 3.80522C23.4885 3.70138 23.2503 3.70138 23.0742 3.80522L3.96488 14.8749C3.77844 14.9787 3.66451 15.1864 3.66451 15.4045V37.5334C3.66451 37.7411 3.77844 37.9487 3.96488 38.0422L9.20571 41.0744C12.054 42.4971 13.794 40.8252 13.794 39.1326V17.284C13.794 16.9725 14.0426 16.7337 14.3533 16.7337H16.7769C17.0773 16.7337 17.3362 16.9725 17.3362 17.284V39.1429C17.3362 42.9436 15.2648 45.1243 11.6708 45.1243C10.5625 45.1243 9.6925 45.1243 7.26888 43.9197L2.25591 41.0225C1.01303 40.306 0.246582 38.9664 0.246582 37.523V15.3941C0.246582 13.9611 1.01303 12.6111 2.25591 11.8946L21.3653 0.824935C22.5771 0.139572 24.1825 0.139572 25.3839 0.824935L44.514 11.905C45.7569 12.6215 46.5233 13.9611 46.5233 15.4045V37.5334C46.5233 38.9664 45.7569 40.306 44.514 41.0329L25.3839 52.1025C24.7728 52.4556 24.0789 52.6425 23.3746 52.6425ZM38.8174 30.8251C38.8174 26.6818 36.0209 25.5811 30.1483 24.8022C24.2032 24.013 23.6024 23.6081 23.6024 22.2166C23.6024 21.0639 24.11 19.527 28.5118 19.527C32.4373 19.527 33.8873 20.3785 34.488 23.0369C34.5398 23.2861 34.7677 23.4731 35.0266 23.4731H37.5124C37.6678 23.4731 37.8128 23.4108 37.9163 23.2965C38.0199 23.1823 38.0717 23.0265 38.0613 22.8708C37.6781 18.2913 34.6434 16.1625 28.5118 16.1625C23.0535 16.1625 19.8013 18.4678 19.8013 22.3412C19.8013 26.5364 23.0431 27.6995 28.2736 28.2187C34.5398 28.8313 35.0266 29.7555 35.0266 30.9913C35.0266 33.1304 33.3073 34.0443 29.2783 34.0443C24.2135 34.0443 23.1053 32.767 22.7324 30.2436C22.691 29.9736 22.4631 29.7763 22.1835 29.7763H19.7081C19.3974 29.7763 19.1591 30.0255 19.1591 30.3267C19.1591 33.5562 20.9095 37.4088 29.2886 37.4088C35.3373 37.3984 38.8174 34.9996 38.8174 30.8251V30.8251Z" fill="#F6DBCD"/>
</svg>
