<svg width="48" height="53" viewBox="0 0 48 53" fill="none" xmlns="http://www.w3.org/2000/svg">
<path d="M35.3183 0.668457C33.0046 0.668457 31.0011 1.29505 29.6138 1.91275C28.253 1.45503 25.997 0.672901 23.2888 1.23728C21.7108 1.5128 20.2614 2.16606 18.9317 3.16594C16.7421 2.10829 14.455 1.45948 12.0571 1.35282C10.5811 1.23728 4.5663 1.92164 2.40772 5.10349C1.61432 6.35667 0.820919 7.9476 0.479624 9.8807C0.13833 11.5872 0.13833 13.5247 0.705677 17.5065C1.04697 20.235 1.50351 22.057 2.52296 25.8077C2.6382 26.1499 3.20555 27.9719 4.90759 32.9802C5.24446 33.8868 5.92704 35.5932 7.28779 37.1841C8.19643 38.3218 9.10508 39.0062 10.2398 39.0062C11.7158 39.0062 12.7352 37.9841 13.6439 36.8464C13.7103 36.7709 13.7813 36.6864 13.8477 36.6109C13.7635 36.7442 13.6882 36.8908 13.6439 37.073C13.4178 38.2107 14.7786 39.1217 15.9132 39.575C16.8219 40.0283 17.8413 40.1438 18.6347 40.1438C19.6542 40.1438 20.452 39.9172 20.9041 39.8061C21.2942 39.6727 22.1363 39.3083 23.0361 38.7084C23.076 41.6147 23.1026 45.0454 23.1735 45.832C23.5148 48.7917 24.3082 50.8359 25.7842 51.9735C26.9189 52.8845 28.9622 53.0001 29.0775 53.0001C31.1164 53.0001 34.2944 51.6358 35.6552 49.476C36.3377 48.4495 36.5638 47.5385 36.7899 46.2853C37.0159 45.6054 37.242 41.6236 37.3572 40.8282C37.5123 39.5705 37.632 38.3307 37.7517 37.1264C38.5008 37.3219 39.4227 37.5308 40.4244 37.5308C42.2373 37.5308 44.6219 36.2776 45.074 36.0465C45.9827 35.3666 47.7955 33.7757 47.0021 32.4114C46.55 31.6115 45.8674 31.6115 44.1654 31.8426C44.1654 31.8426 41.4439 32.1803 41.2134 32.0648C41.0494 32.0025 40.7967 31.8426 40.5131 31.6337C41.1026 30.7182 41.6256 29.8117 42.2373 28.9984C43.598 26.381 44.3959 24.3323 44.9632 22.7414C45.9827 19.8973 46.55 17.6176 46.8869 16.0266C47.6847 12.6137 47.9108 11.0228 47.4542 9.20078C46.55 6.01449 43.2567 3.28593 41.896 2.49046C40.9873 2.03274 38.7224 0.668457 35.3183 0.668457ZM35.3183 2.94374C38.155 2.94374 40.0831 4.08139 41.1026 4.53467C42.3525 5.21903 45.1893 7.49432 45.4153 9.65406C45.5306 10.9072 45.6414 12.1604 44.848 15.4578C44.3959 17.0487 43.9393 19.0974 42.9154 21.9415C42.3481 23.5324 41.6699 25.47 40.3092 27.8608C40.2737 27.9186 40.2338 27.9808 40.1984 28.043C40.3313 27.5631 40.4244 27.1764 40.4244 27.1764C40.6505 26.0388 40.6505 25.1278 40.5352 23.7635C40.42 23.0791 40.3092 21.3727 40.3092 20.6883C40.3092 20.3506 40.646 16.8221 40.7613 15.5689C40.8765 13.5247 39.6266 11.0183 39.2897 10.5651C37.5877 7.9476 36.679 6.47222 34.8618 4.99239C34.4097 4.60577 33.634 3.9614 32.5791 3.31259C33.4124 3.10817 34.3343 2.94374 35.3183 2.94374ZM25.2922 3.41035C26.7726 3.44591 28.027 3.85475 28.9622 4.19693C31.3469 4.99239 32.8184 6.24113 33.501 6.80995C34.977 8.06314 35.7704 9.31633 37.4724 11.9338C37.5966 12.1827 37.9201 12.7115 38.1772 13.4492C35.8546 13.2359 34.3121 14.0535 33.3858 14.889C32.025 16.0266 32.1358 17.7331 32.2511 18.9819C32.2511 19.8929 32.4816 21.0349 34.1836 24.9012C34.8618 26.6076 35.5399 28.4252 36.2225 29.6784C36.5771 30.3849 37.0115 31.0338 37.4769 31.6115C37.2065 31.7492 36.9317 31.927 36.6746 32.1803C35.9965 32.9758 35.8812 33.7757 35.6552 35.2555C35.4291 36.3931 35.2031 38.7795 35.0878 40.7126C35.0878 41.5081 34.7509 45.3787 34.6357 45.9476C34.2944 47.0852 34.1792 47.654 33.7271 48.3384C32.9337 49.5871 30.4382 50.6137 28.9622 50.4981C28.5101 50.4981 27.8275 50.4981 27.2602 50.0448C26.0103 49.1338 25.5581 47.0852 25.4429 45.4943C25.3277 44.3566 25.4429 36.162 25.2169 34.34C25.1016 33.8868 24.9908 32.7491 24.0822 31.9537C23.701 31.6337 22.912 31.4693 22.1674 31.3582C22.1762 30.976 22.1984 30.5938 22.2693 30.2472C22.3801 29.5628 22.6062 29.2206 22.8367 28.6518C22.9475 28.3141 23.1735 27.8608 23.404 27.292C24.4235 24.1057 24.193 19.8929 23.6256 17.2754C23.5148 17.0487 23.0583 15.2312 21.4715 14.2091C19.7694 13.1825 17.9521 13.7514 16.9327 14.0935C16.5116 14.2091 16.095 14.3913 15.6783 14.6046C15.7492 14.1291 15.8113 13.6491 15.9132 13.1825C16.3654 10.9072 16.8219 8.97414 18.2979 7.04104C19.8847 5.10349 21.6975 3.85475 23.7409 3.51257C24.2816 3.42813 24.8002 3.39702 25.2922 3.41035ZM11.2814 3.61033C11.5473 3.60589 11.7734 3.61033 11.9418 3.62811C13.7148 3.72143 15.4124 4.13916 17.0967 4.85018C16.8884 5.08127 16.6801 5.31235 16.4806 5.56121C14.5525 7.8365 14.096 10.2229 13.6439 12.6137C13.0765 15.4578 12.9613 18.413 13.4134 21.3727L13.1918 23.5324C13.0765 24.6701 12.846 26.8343 14.096 29.1095C14.5348 29.865 15.0179 30.5049 15.5498 31.0515C14.3974 32.5802 13.174 34.0245 11.9418 35.3666C11.2592 36.162 10.6919 36.7309 10.2398 36.7309C10.1245 36.7309 9.67242 36.5042 8.98983 35.7088C7.7399 34.3445 7.28779 32.8647 7.06174 32.2958C5.70099 28.1985 4.90759 25.5811 4.79235 25.2389C3.88371 21.5993 3.4316 19.7818 2.97507 17.1643C2.40772 13.5247 2.40772 11.7027 2.74901 10.2273C3.09031 8.63196 3.65766 7.37878 4.225 6.47222C5.61678 4.28136 9.43751 3.65921 11.2814 3.61033ZM37.3173 15.6C37.6808 15.6 38.0753 15.6445 38.4919 15.7333C38.4786 16.7954 38.0398 20.1284 38.0398 20.5772C38.0398 21.4882 38.2658 23.3058 38.2658 23.9901C38.3811 25.2433 38.3811 25.9233 38.2658 26.8343C38.2658 26.8343 38.0974 27.6475 37.9245 28.2252C37.3971 27.0298 36.812 25.6033 36.1073 23.9901C34.4052 20.1239 34.2944 19.3285 34.2944 18.7597C34.2944 17.9597 34.2944 16.9376 34.9726 16.4844C35.6108 15.9155 36.3865 15.6089 37.3173 15.6ZM19.7029 15.9333C19.929 15.96 20.1373 16.0266 20.3368 16.1377C21.2454 16.5955 21.4715 17.7331 21.4715 17.7331C22.0388 20.235 22.2649 23.9901 21.3562 26.4921C21.2454 26.9454 21.0194 27.2875 20.9041 27.6297C20.6781 28.1985 20.452 28.7674 20.2215 29.7895C20.1639 30.2116 20.1373 30.6294 20.124 31.0471C19.3395 30.8827 18.5993 30.6027 18.0674 30.2472C17.1587 29.7939 16.4806 28.994 16.0285 28.083C15.2307 26.3765 15.3459 24.7856 15.4611 23.879L15.6828 21.2571C15.5232 19.9773 15.4478 18.693 15.4656 17.4176C15.9886 16.9688 16.6712 16.511 17.6153 16.2533C18.2979 16.0844 19.0425 15.8489 19.7029 15.9333ZM36.4353 16.6977C36.1383 16.711 35.8236 16.7643 35.6552 16.8221C35.2031 16.9376 35.0878 16.9376 34.9726 17.1643C34.8618 17.3909 35.2031 17.7331 35.3183 17.9597C35.4291 17.9597 35.7704 18.3019 36.2225 18.1908C36.5638 18.0753 36.7899 17.8487 36.9051 17.7331C37.0203 17.6176 37.4724 17.0487 37.1312 16.8221C37.0159 16.7066 36.7322 16.6799 36.4353 16.6977ZM19.4459 17.5242C19.3218 17.5331 19.2021 17.5642 19.0868 17.622C18.976 17.622 18.75 17.7331 18.6347 17.9597C18.5195 18.1864 18.6347 18.413 18.75 18.5286C18.976 18.8708 19.3173 19.2129 19.8847 19.2129C19.9999 19.2129 20.452 19.2129 20.7889 18.8708C20.7889 18.8708 21.1346 18.5286 21.1346 18.1908C21.0194 17.9597 20.7933 17.8487 20.452 17.7331C20.1949 17.6487 19.8138 17.4976 19.4459 17.5242ZM17.3582 32.4114C18.0541 32.7847 18.8918 33.0869 19.8093 33.2957C19.5655 33.7845 19.2154 34.1889 18.8652 34.4556C18.0674 35.0244 17.0479 35.3666 16.0285 35.5932C15.798 35.5932 15.6872 35.7088 15.4611 35.7088C14.9115 35.8643 14.3796 36.0376 14.0162 36.4153C15.1287 35.1755 16.2457 33.8068 17.3582 32.4114ZM39.2365 33.3224C39.733 33.6957 40.2205 33.9712 40.646 34.1178C41.3286 34.3445 41.896 34.3445 43.9393 34.1178C43.598 34.4556 42.5786 35.0244 41.1026 35.2555C40.154 35.3488 38.975 35.1222 38.0176 34.8466C38.1063 34.2023 38.2082 33.8334 38.3767 33.6601C38.4387 33.6023 38.8155 33.4868 39.2365 33.3224ZM22.1496 33.6646C22.3845 33.7046 22.5707 33.7357 22.6062 33.7712C22.8322 34.0023 22.9475 34.5711 22.9475 34.7978C22.9608 34.9933 22.9696 35.4866 22.9785 35.8288C22.0433 36.9264 20.5407 37.5352 20.2215 37.6419C19.7694 37.8685 18.4087 38.0951 17.0479 37.6419C18.1826 37.2997 19.3173 36.962 20.2215 36.2776C21.0149 35.7088 21.6975 34.8022 22.1496 33.6646Z" fill="#F6DBCD"/>
</svg>
