<svg width="61" height="53" viewBox="0 0 61 53" fill="none" xmlns="http://www.w3.org/2000/svg">
<path d="M49.1911 17.2696C48.562 17.0593 47.9329 16.8608 47.3038 16.6739C47.4086 16.2417 47.5018 15.8095 47.595 15.3773C49.028 8.41574 48.0843 2.82077 44.9038 0.975243C41.8398 -0.788518 36.8418 1.04533 31.7856 5.46057C31.2847 5.89275 30.7954 6.34829 30.3293 6.80383C30.0148 6.50014 29.6886 6.19644 29.3624 5.90443C24.0615 1.18549 18.749 -0.800198 15.5685 1.05701C12.5161 2.83245 11.6074 8.10037 12.8889 14.6882C13.0171 15.3423 13.1569 15.9847 13.32 16.6388C12.5743 16.8491 11.8404 17.0827 11.153 17.328C4.93178 19.4889 0.469727 22.8996 0.469727 26.4271C0.469727 30.0715 5.22303 33.7275 11.6889 35.9468C12.2132 36.122 12.7375 36.2972 13.2734 36.449C13.0986 37.1499 12.9472 37.839 12.8074 38.5515C11.5841 45.0342 12.5394 50.1737 15.5918 51.9374C18.7373 53.7596 24.0266 51.8907 29.176 47.3703C29.5837 47.0082 29.9915 46.6345 30.3992 46.2373C30.9119 46.7396 31.4478 47.2185 31.9837 47.6857C36.97 51.9841 41.8981 53.7245 44.9388 51.9608C48.0843 50.1386 49.1096 44.6137 47.7814 37.8857C47.6766 37.3718 47.5601 36.8462 47.4319 36.3089C47.8047 36.2037 48.1659 36.0869 48.5271 35.9701C55.2493 33.7391 60.1191 30.1299 60.1191 26.4271C60.1191 22.8879 55.5289 19.4538 49.1911 17.2696V17.2696ZM33.4283 7.35282C37.7622 3.56832 41.8049 2.08489 43.6456 3.14782C45.6145 4.28083 46.3718 8.8596 45.1368 14.8751C45.0553 15.2722 44.9737 15.6577 44.8689 16.0431C42.2825 15.4591 39.6612 15.0386 37.0282 14.805C35.5137 12.6324 33.8594 10.5533 32.0652 8.60263C32.5196 8.17045 32.9623 7.76163 33.4283 7.35282V7.35282ZM18.283 29.4407C18.8189 30.4686 19.3665 31.4848 19.949 32.4893C20.5431 33.5055 21.1489 34.5217 21.7897 35.5146C19.9723 35.316 18.1665 35.024 16.384 34.6385C16.8966 32.9565 17.5374 31.2161 18.283 29.4407V29.4407ZM18.283 23.5304C17.549 21.79 16.9315 20.0846 16.4189 18.4376C18.0966 18.0639 19.8791 17.7602 21.7315 17.5266C21.114 18.496 20.5082 19.4889 19.9373 20.4934C19.3665 21.4863 18.8072 22.5025 18.283 23.5304ZM19.6111 26.4855C20.38 24.8736 21.2188 23.2967 22.1043 21.7432C22.9897 20.1897 23.945 18.6829 24.9469 17.1995C26.6945 17.071 28.477 17.0009 30.2944 17.0009C32.1118 17.0009 33.906 17.071 35.6419 17.1995C36.6321 18.6713 37.5758 20.178 38.4729 21.7199C39.37 23.2617 40.2088 24.8386 41.001 26.4388C40.2204 28.0507 39.3816 29.6393 38.4845 31.2045C37.5991 32.758 36.6554 34.2648 35.6652 35.7599C33.9293 35.8884 32.1235 35.9468 30.2944 35.9468C28.4653 35.9468 26.6945 35.8884 24.9819 35.7832C23.9683 34.2998 23.013 32.7813 22.1159 31.2278C21.2188 29.6743 20.3917 28.0974 19.6111 26.4855ZM40.6515 32.466C41.2456 31.4381 41.8049 30.3985 42.3524 29.3473C43.098 31.0409 43.7504 32.758 44.3213 34.5217C42.5155 34.9306 40.6864 35.2459 38.8457 35.4562C39.4748 34.475 40.069 33.4705 40.6515 32.466ZM42.3291 23.5304C41.7816 22.5025 41.2223 21.4746 40.6398 20.4701C40.069 19.4772 39.4748 18.496 38.8573 17.5266C40.733 17.7602 42.5272 18.0755 44.2048 18.461C43.6689 20.1897 43.0398 21.8717 42.3291 23.5304V23.5304ZM30.3177 10.3898C31.541 11.7213 32.6943 13.123 33.7662 14.5714C31.4594 14.4663 29.141 14.4663 26.8343 14.5714C27.976 13.0646 29.1527 11.6629 30.3177 10.3898ZM16.8034 3.22959C18.7606 2.08489 23.1062 3.72017 27.6847 7.785C27.976 8.04197 28.2673 8.3223 28.5702 8.60263C26.7644 10.5533 25.0984 12.6324 23.5722 14.805C20.9392 15.0386 18.3296 15.4474 15.7432 16.0198C15.5918 15.4241 15.4636 14.8167 15.3355 14.2093C14.2403 8.55591 14.9627 4.29252 16.8034 3.22959V3.22959ZM13.9491 34.0195C13.4598 33.8793 12.9821 33.7275 12.5044 33.5639C10.0229 32.7813 7.20358 31.5432 5.16478 29.9196C3.98811 29.102 3.19589 27.8405 2.97453 26.4271C2.97453 24.2896 6.65602 21.5563 11.9685 19.6991C12.6326 19.4655 13.3083 19.2553 13.984 19.0567C14.7762 21.5914 15.7316 24.0793 16.8383 26.4855C15.7199 28.9268 14.7529 31.4498 13.9491 34.0195V34.0195ZM27.5333 45.4664C25.611 47.2302 23.3858 48.6318 20.9625 49.5896C19.6694 50.2087 18.1781 50.2671 16.85 49.7415C14.9976 48.6669 14.2287 44.5436 15.2772 38.9954C15.4054 38.3413 15.5452 37.6872 15.7083 37.0447C18.3179 37.6054 20.9509 37.9909 23.6188 38.1894C25.1566 40.3737 26.8459 42.4645 28.6517 44.4268C28.2789 44.7889 27.9061 45.1393 27.5333 45.4664ZM30.3876 42.628C29.1993 41.3432 28.0109 39.9181 26.8576 38.388C27.976 38.4347 29.1294 38.4581 30.2944 38.4581C31.4944 38.4581 32.6711 38.4347 33.8361 38.3763C32.7643 39.8597 31.6109 41.2731 30.3876 42.628V42.628ZM45.6145 46.1322C45.5096 47.5572 44.8106 48.8888 43.6922 49.7882C41.8398 50.8628 37.8904 49.4611 33.6264 45.7935C33.1371 45.373 32.6477 44.9174 32.1468 44.4502C33.9293 42.4762 35.572 40.3854 37.0632 38.1894C39.7311 37.9675 42.3874 37.5587 45.0087 36.963C45.1252 37.4419 45.23 37.9208 45.3232 38.388C45.8941 40.911 45.9873 43.5391 45.6145 46.1322V46.1322ZM47.7348 33.5756C47.4086 33.6807 47.0824 33.7859 46.7446 33.8793C45.9291 31.333 44.9271 28.845 43.7738 26.4271C44.8922 24.0443 45.8358 21.5914 46.6281 19.0801C47.2339 19.2553 47.8164 19.4422 48.3756 19.6291C53.8046 21.4979 57.6143 24.2779 57.6143 26.4038C57.6143 28.6932 53.5483 31.6483 47.7348 33.5756ZM30.2944 21.1242C33.2419 21.1242 35.6302 23.5187 35.6302 26.4739C35.6302 29.429 33.2419 31.8235 30.2944 31.8235C27.3469 31.8235 24.9586 29.429 24.9586 26.4739C24.9586 23.5187 27.3469 21.1242 30.2944 21.1242Z" fill="#F6DBCD"/>
</svg>
