<svg width="54" height="53" viewBox="0 0 54 53" fill="none" xmlns="http://www.w3.org/2000/svg">
<path d="M1.87642 24.2022L7.64725 14.2747C7.70072 14.1764 7.77202 14.087 7.85224 14.0156L18.2085 4.33826C18.3199 4.2355 18.4536 4.15507 18.5962 4.10146L27.4909 0.826547L34.9908 6.0807L31.2564 17.983L17.246 31.0335L5.82019 33.6025L1.87642 24.2022ZM6.63568 35.7649L11.9653 51.0449L16.3503 33.5757L6.63568 35.7649ZM46.7775 1.00079L38.324 5.70988L52.3344 15.9099C52.6286 14.5964 52.9717 12.8048 53.0519 11.2812C53.0474 11.2634 53.0474 11.241 53.0474 11.2187C53.092 9.04734 52.7355 6.77769 51.5591 4.81631C50.5029 3.05152 48.9165 1.76032 46.8354 0.947178C46.8176 0.965049 46.8042 0.987388 46.7775 1.00079ZM37.5264 38.4054L31.7332 20.6547L19.9732 31.6188L37.5264 38.4054ZM33.841 19.7522L39.594 37.3778C44.0949 32.4677 48.7026 26.588 51.3318 19.3591L33.841 19.7522ZM50.084 17.0984L36.9292 7.52381L33.8098 17.4647L50.084 17.0984ZM4.88438 37.6727L0.976255 44.3967C2.31313 50.6025 6.94316 51.992 9.99569 52.3316L4.88438 37.6727ZM3.87727 34.8669L0.593018 27.0437V40.5142L3.87727 34.8669ZM43.8542 0.0134037C43.8364 0.0089362 43.8186 0 43.7963 0H30.2983L36.3143 4.21762L43.8542 0.0134037ZM18.7032 33.5757L14.0286 52.1931C23.5338 50.7902 30.6637 45.6701 36.4435 40.4383L18.7032 33.5757ZM49.1304 49.9234C48.863 49.9234 48.5912 49.8296 48.3728 49.6375L38.9434 41.2425C34.7991 45.0982 29.9597 49.0165 24.0017 51.657L49.1482 49.9458C49.2953 49.9368 49.4334 49.8922 49.5627 49.8341C49.4245 49.8922 49.2775 49.9234 49.1304 49.9234ZM40.5922 39.6519L49.888 47.9263C50.084 48.1006 50.1865 48.3284 50.2311 48.5652L52.1517 23.3488C49.1705 29.8272 44.79 35.1484 40.5922 39.6519Z" fill="#F6DBCD"/>
</svg>
