<svg width="42" height="53" viewBox="0 0 42 53" fill="none" xmlns="http://www.w3.org/2000/svg">
<path d="M2.59619 43.3281V52.3316H4.88661V49.9867L6.9711 52.0766H10.4855L7.69785 49.2817C7.69785 49.2817 9.70323 49.2491 9.85487 46.3415C9.85487 43.6738 7.84716 43.3281 5.52844 43.3281H2.59619ZM4.99559 45.7703H6.9711V47.3742H4.99559V45.7703Z" fill="#F6DBCD"/>
<path d="M14.909 43.3647C13.6549 43.3573 11.9155 43.4739 11.9155 45.8434V52.1011H14.2664V50.5699H16.5448V52.0645H18.9082V45.5032C18.9082 43.4452 16.6274 43.3647 15.4058 43.3647C15.253 43.3647 15.0882 43.3658 14.909 43.3647ZM14.3029 45.6245H16.5088V48.0912H14.3029V45.6245Z" fill="#F6DBCD"/>
<path d="M23.6963 43.3705H21.2639V51.9836H23.6963V43.3705Z" fill="#F6DBCD"/>
<path d="M26.2437 43.4849V52.098H32.0973V49.8114H28.6384V43.4468L26.2437 43.4849Z" fill="#F6DBCD"/>
<path d="M39.852 43.4086V45.7334H35.9367V46.5717C35.9367 46.5717 36.7352 46.5717 37.6089 46.5717C38.4826 46.5717 40.3077 46.5336 40.3077 49.2779C40.3077 52.0218 39.0535 52.1742 36.5067 52.1742C33.9596 52.1742 33.4279 52.1742 33.4279 52.1742V50.0777C33.4279 50.0777 35.8986 50.0777 36.9628 50.0777C38.027 50.0777 38.0859 49.7301 38.0859 49.4276C38.0859 49.1251 37.5418 48.9839 36.435 48.9839C35.3282 48.9839 33.2759 48.4388 33.2759 46.3046C33.2759 44.1703 34.34 43.3698 36.4687 43.3698C38.5974 43.3698 39.852 43.4086 39.852 43.4086Z" fill="#F6DBCD"/>
<path d="M4.72823 40.7789H24.9511C24.9511 40.7789 20.4656 30.565 21.6058 21.1898C22.7463 11.8146 30.1206 7.54574 34.302 7.08849C38.483 6.63085 40.7641 9.22273 40.7641 9.22273L41.6766 7.85059C41.6766 7.85059 35.6706 1.75273 28.0679 2.439C20.4652 3.12488 15.2197 8.15541 11.9508 14.2533C8.68158 20.3515 6.78091 24.6196 5.48873 31.0223C4.19654 37.425 4.72823 40.7789 4.72823 40.7789Z" fill="#F6DBCD"/>
<path d="M0.699473 30.5651L4.65282 30.8699L3.96833 34.8331L0.243408 34.3759L0.699473 30.5651Z" fill="#F6DBCD"/>
<path d="M6.93351 22.1806L7.99805 19.2081L4.50076 17.8359L3.3606 21.0371L6.93351 22.1806Z" fill="#F6DBCD"/>
<path d="M11.875 11.9666L13.9276 9.52797L11.2669 7.77478L9.13818 10.1372L11.875 11.9666Z" fill="#F6DBCD"/>
<path d="M17.2727 2.5153L19.0974 4.72574L21.6061 3.27738L19.7815 1.21936L17.2727 2.5153Z" fill="#F6DBCD"/>
<path d="M26.1677 0L26.6238 2.21083L29.741 2.13461L29.4366 0.152808L26.1677 0Z" fill="#F6DBCD"/>
<path d="M36.7352 2.36292L36.6592 3.73468L38.7879 4.87779L39.2439 4.19193L36.7352 2.36292Z" fill="#F6DBCD"/>
<path d="M36.2786 8.23206V9.37519L38.3313 9.60382V8.68891L36.2786 8.23206Z" fill="#F6DBCD"/>
<path d="M29.7412 9.22282L30.7294 11.0518L32.174 9.9087L31.8699 8.68896L29.7412 9.22282Z" fill="#F6DBCD"/>
<path d="M26.6235 11.5861L28.1441 13.8727L27.2316 15.4731L25.0269 13.0344L26.6235 11.5861Z" fill="#F6DBCD"/>
<path d="M23.5828 17.9121L22.5942 19.8939L25.179 22.1047L25.7871 19.5891L23.5828 17.9121Z" fill="#F6DBCD"/>
<path d="M22.5185 24.8483L22.3665 27.516L25.5593 28.8881L25.4073 26.3724L22.5185 24.8483Z" fill="#F6DBCD"/>
<path d="M23.4304 34.3L24.1909 37.0443L28.2199 37.273L26.7753 34.3H23.4304Z" fill="#F6DBCD"/>
</svg>
