<svg width="39" height="53" viewBox="0 0 39 53" fill="none" xmlns="http://www.w3.org/2000/svg">
<path fill-rule="evenodd" clip-rule="evenodd" d="M0.243408 50.7803V2.88813C0.243408 1.6627 1.23513 0.668397 2.45739 0.668397H21.8119L38.3842 17.2837V50.7803C38.3842 52.0057 37.3924 53 36.1702 53H2.45739C1.23513 53 0.243408 52.0057 0.243408 50.7803Z" fill="#F6DBCD"/>
<path fill-rule="evenodd" clip-rule="evenodd" d="M21.812 0.668408L38.3842 17.2837H24.026C22.8037 17.2837 21.812 16.2894 21.812 15.064V0.668408Z" fill="#4F767B"/>
<path d="M11.0625 44.7214C11.0625 45.4235 10.7841 46.005 10.2259 46.4614C9.71553 46.8815 9.06308 47.0923 8.26709 47.0923C7.94377 47.0923 7.63639 47.0458 7.34787 46.9556C7.05934 46.8655 6.80416 46.7361 6.57942 46.5704C6.35469 46.4033 6.18361 46.2652 6.06761 46.1532C5.95017 46.0413 5.82403 45.9046 5.68774 45.7418L6.34454 44.9874C6.57363 45.297 6.8694 45.5659 7.22897 45.7956C7.59 46.0238 7.97132 46.1387 8.37584 46.1387C8.82385 46.1387 9.19647 46.0166 9.49225 45.7724C9.78803 45.5282 9.93737 45.2011 9.93737 44.7882C9.93737 44.5964 9.89387 44.4219 9.80977 44.2664C9.72423 44.1123 9.59519 43.9786 9.42266 43.8666C9.24867 43.7547 9.11963 43.6776 9.03408 43.634C8.94999 43.5904 8.81805 43.5352 8.64117 43.4669C8.01481 43.2168 7.59145 43.038 7.36816 42.9276C7.04339 42.7807 6.77661 42.5918 6.56493 42.3606C6.2184 41.9987 6.04442 41.5335 6.04442 40.9651C6.04442 40.3459 6.288 39.8313 6.77371 39.4228C7.24492 39.0289 7.86113 38.8312 8.61797 38.8268C9.48935 38.8268 10.2534 39.1728 10.9102 39.8647L10.3216 40.6308C9.78223 40.0566 9.19502 39.7688 8.56142 39.7688C8.1511 39.7688 7.81618 39.8662 7.5581 40.061C7.30002 40.2557 7.17098 40.5305 7.17098 40.8866C7.17098 41.064 7.19853 41.221 7.25507 41.3576C7.31162 41.4928 7.39716 41.6091 7.51025 41.7065C7.62334 41.8024 7.72919 41.878 7.82923 41.9333C7.92927 41.987 8.05251 42.0452 8.2004 42.1062L9.67059 42.7241C10.0548 42.9014 10.3578 43.1165 10.5768 43.3709C10.9001 43.775 11.0625 44.2257 11.0625 44.7214V44.7214Z" fill="#0A2529"/>
<path d="M20.1547 42.9508C20.1547 44.1414 19.7835 45.1226 19.0397 45.8945L19.9227 46.9048L19.1919 47.5516L18.2756 46.4963C17.6043 46.8888 16.8562 47.0879 16.0297 47.0923C14.8727 47.0923 13.8955 46.7129 13.0995 45.957C12.3035 45.2011 11.9062 44.1995 11.9062 42.9537C11.9062 41.7079 12.3035 40.7064 13.0995 39.9505C13.8955 39.1946 14.8727 38.8152 16.0297 38.8152C17.1882 38.8152 18.1654 39.1931 18.96 39.9476C19.7559 40.702 20.1547 41.7036 20.1547 42.9508V42.9508ZM19.0063 42.9276C19.0063 41.9754 18.7207 41.2137 18.1495 40.6453C17.5768 40.0755 16.8707 39.792 16.0297 39.792C15.1888 39.792 14.4827 40.0755 13.9114 40.6453C13.3402 41.2137 13.0546 41.9754 13.0546 42.9276C13.0546 43.8739 13.3402 44.6327 13.9114 45.2054C14.4827 45.7782 15.1888 46.0645 16.0297 46.0645C16.585 46.0645 17.0939 45.9352 17.5579 45.6735L16.8837 44.9074L17.6145 44.2562L18.2988 45.0441C18.77 44.4684 19.0063 43.7634 19.0063 42.9276Z" fill="#0A2529"/>
<path d="M25.4008 45.9861V46.9498H21.4629V38.9344H22.5822V45.9861H25.4008V45.9861Z" fill="#0A2529"/>
</svg>
