<svg width="65" height="64" viewBox="0 0 65 64" fill="none" xmlns="http://www.w3.org/2000/svg">
<path d="M57.202 0H6.86424C3.07461 0 0 3.07143 0 6.85714V57.1429C0 60.9286 3.07461 64 6.86424 64H57.202C60.9916 64 64.0662 60.9286 64.0662 57.1429V6.85714C64.0662 3.07143 60.9916 0 57.202 0ZM50.209 22.6857C50.2376 23.0857 50.2376 23.5 50.2376 23.9C50.2376 36.2857 40.7993 50.5571 23.5529 50.5571C18.2331 50.5571 13.2995 49.0143 9.15231 46.3571C9.91024 46.4429 10.6396 46.4714 11.4118 46.4714C15.802 46.4714 19.8348 44.9857 23.0524 42.4714C18.9338 42.3857 15.4731 39.6857 14.2862 35.9714C15.7305 36.1857 17.0319 36.1857 18.5191 35.8C14.229 34.9286 11.0114 31.1571 11.0114 26.6V26.4857C12.2555 27.1857 13.7142 27.6143 15.2443 27.6714C13.9579 26.8166 12.9033 25.657 12.1747 24.2959C11.4461 22.9349 11.0661 21.4149 11.0686 19.8714C11.0686 18.1286 11.5262 16.5286 12.3413 15.1429C16.9604 20.8286 23.8961 24.5429 31.6756 24.9429C30.3456 18.5857 35.1077 13.4286 40.8279 13.4286C43.5307 13.4286 45.9618 14.5571 47.6778 16.3857C49.7943 15.9857 51.825 15.2 53.6268 14.1286C52.9261 16.3 51.4532 18.1286 49.5083 19.2857C51.396 19.0857 53.2264 18.5571 54.9139 17.8286C53.6411 19.7 52.0395 21.3571 50.209 22.6857Z" fill="#D6A892"/>
</svg>
